<?xml version="1.0" encoding="UTF-8" standalone="no"?>
<!-- Generator: Adobe Illustrator 19.2.1, SVG Export Plug-In . SVG Version: 6.00 Build 0)  -->

<svg
   xmlns:dc="http://purl.org/dc/elements/1.1/"
   xmlns:cc="http://creativecommons.org/ns#"
   xmlns:rdf="http://www.w3.org/1999/02/22-rdf-syntax-ns#"
   xmlns:svg="http://www.w3.org/2000/svg"
   xmlns="http://www.w3.org/2000/svg"
   xmlns:sodipodi="http://sodipodi.sourceforge.net/DTD/sodipodi-0.dtd"
   xmlns:inkscape="http://www.inkscape.org/namespaces/inkscape"
   version="1.1"
   id="icons"
   x="0px"
   y="0px"
   viewBox="0 0 127 127"
   style="enable-background:new 0 0 127 127;"
   xml:space="preserve"
   inkscape:version="0.91 r13725"
   sodipodi:docname="skype.svg"><metadata
     id="metadata15"><rdf:RDF><cc:Work
         rdf:about=""><dc:format>image/svg+xml</dc:format><dc:type
           rdf:resource="http://purl.org/dc/dcmitype/StillImage" /><dc:title /></cc:Work></rdf:RDF></metadata><defs
     id="defs13"><inkscape:path-effect
       effect="bend_path"
       id="path-effect4151"
       is_visible="true"
       bendpath="m 74.39322,21.525424 42.78983,0"
       prop_scale="1"
       scale_y_rel="false"
       vertical="false" /></defs><sodipodi:namedview
     pagecolor="#ffffff"
     bordercolor="#666666"
     borderopacity="1"
     objecttolerance="10"
     gridtolerance="10"
     guidetolerance="10"
     inkscape:pageopacity="0"
     inkscape:pageshadow="2"
     inkscape:window-width="1920"
     inkscape:window-height="1052"
     id="namedview11"
     showgrid="false"
     inkscape:zoom="1.8582677"
     inkscape:cx="-23.677966"
     inkscape:cy="63.499999"
     inkscape:window-x="1920"
     inkscape:window-y="0"
     inkscape:window-maximized="1"
     inkscape:current-layer="icons" /><style
     type="text/css"
     id="style3">
	.st0{fill:#00AFF0;}
	.st1{fill:#FFFFFF;}
</style><g
     id="g5"><path
       class="st0"
       d="M3.5,63.5c0,33.2,26.9,60,60,60c3.7,0,7.3-0.3,10.8-1c5.1,2.8,11,4.4,17.2,4.4c19.6,0,35.5-15.9,35.5-35.5   c0-6.2-1.6-12.1-4.4-17.2c0.6-3.5,1-7.1,1-10.8c0-33.2-26.9-60-60-60c-3.7,0-7.3,0.3-10.8,1C47.6,1.6,41.7,0,35.5,0   C15.9,0,0,15.9,0,35.5c0,6.2,1.6,12.1,4.4,17.2C3.8,56.2,3.5,59.8,3.5,63.5"
       id="path7" /><path
       class="st1"
       d="M63.8,101.5C42.5,101.5,33,91,33,83.1c0-4,3-6.9,7.1-6.9c9.1,0,6.8,13.1,23.8,13.1c8.7,0,13.5-4.7,13.5-9.6   c0-2.9-1.4-6.2-7.2-7.6l-18.9-4.7c-15.3-3.8-18-12.1-18-19.9c0-16.1,15.2-22.2,29.4-22.2c13.1,0,28.6,7.3,28.6,16.9   c0,4.2-3.6,6.6-7.7,6.6c-7.8,0-6.3-10.8-22-10.8c-7.8,0-12.1,3.5-12.1,8.6c0,5,6.1,6.7,11.5,7.9l14,3.1C90.4,61,94.3,70,94.3,78.5   C94.1,91.8,84,101.5,63.8,101.5"
       id="path9" /></g></svg>