<?xml version="1.0" encoding="UTF-8" standalone="no"?>
<svg
   xmlns:dc="http://purl.org/dc/elements/1.1/"
   xmlns:cc="http://creativecommons.org/ns#"
   xmlns:rdf="http://www.w3.org/1999/02/22-rdf-syntax-ns#"
   xmlns:svg="http://www.w3.org/2000/svg"
   xmlns="http://www.w3.org/2000/svg"
   xmlns:sodipodi="http://sodipodi.sourceforge.net/DTD/sodipodi-0.dtd"
   xmlns:inkscape="http://www.inkscape.org/namespaces/inkscape"
   height="512"
   viewBox="0 0 512 512"
   width="512"
   version="1.1"
   id="svg2"
   inkscape:version="0.91 r13725"
   sodipodi:docname="SpiderOakONE.svg">
  <defs
     id="defs17" />
  <sodipodi:namedview
     pagecolor="#ffffff"
     bordercolor="#666666"
     borderopacity="1"
     objecttolerance="10"
     gridtolerance="10"
     guidetolerance="10"
     inkscape:pageopacity="0"
     inkscape:pageshadow="2"
     inkscape:window-width="1920"
     inkscape:window-height="1052"
     id="namedview15"
     showgrid="false"
     inkscape:zoom="0.6433966"
     inkscape:cx="-618.06749"
     inkscape:cy="432.08755"
     inkscape:window-x="1920"
     inkscape:window-y="0"
     inkscape:window-maximized="1"
     inkscape:current-layer="svg2" />
  <metadata
     id="metadata28">
    <rdf:RDF>
      <cc:Work
         rdf:about="">
        <dc:format>image/svg+xml</dc:format>
        <dc:type
           rdf:resource="http://purl.org/dc/dcmitype/StillImage" />
        <dc:title></dc:title>
      </cc:Work>
    </rdf:RDF>
  </metadata>
  <path
     style="fill:#dc6c32;fill-rule:evenodd;fill-opacity:1"
     inkscape:connector-curvature="0"
     d="m 471.95,253.05 c 0,120.9 -98.01,218.9 -218.9,218.9 -120.9,0 -218.9,-98.01 -218.9,-218.9 0,-120.9 98.01,-218.9 218.9,-218.9 120.9,0 218.9,98.01 218.9,218.9"
     id="path6" />
  <path
     d="m 282.44319,143.02343 c -37.63714,0.0379 -72.13912,20.97566 -89.54239,54.34792 -5.62333,-2.50206 -11.71422,-3.79101 -17.86828,-3.80365 -24.03501,0.0253 -43.64717,19.23306 -44.1779,43.25542 -23.02408,10.02091 -37.922748,32.72906 -37.960656,57.83818 0,34.89498 28.288516,63.1835 63.183506,63.1835 l 189.55049,0 c 41.87423,0 75.8202,-33.94597 75.8202,-75.8202 -0.0379,-28.97596 -16.59199,-55.38666 -42.63623,-68.0739 -13.18008,-42.15603 -52.20221,-70.87925 -96.36747,-70.9298 z m -25.27339,50.5468 63.18349,63.1835 -37.9101,0 0,63.1835 -50.54679,0 0,-63.1835 -37.9101,0 z"
     style="fill:#f2f2f2"
     id="path29"
     inkscape:connector-curvature="0" />
</svg>
